<?xml version="1.0" encoding="UTF-8"?>
<svg xmlns="http://www.w3.org/2000/svg" xmlns:xlink="http://www.w3.org/1999/xlink" viewBox="0 0 80 80" version="1.1" fill="#ffffff"><g id="surface1" fill="#ffffff"><path style=" " d="M 40 7.882813 L 39.550781 8.105469 C 39.550781 8.105469 27.75 14 12 14 L 11 14 L 11 15 C 11 38.203125 18.089844 52.230469 25.25 60.40625 C 32.40625 68.585938 39.691406 70.953125 39.691406 70.953125 L 40 71.050781 L 40.308594 70.953125 C 40.308594 70.953125 47.59375 68.585938 54.75 60.40625 C 61.910156 52.230469 69 38.203125 69 15 L 69 14 L 68 14 C 52.25 14 40.449219 8.105469 40.449219 8.105469 Z M 40 10.09375 C 41.148438 10.648438 52.082031 15.710938 66.964844 15.953125 C 66.765625 38.148438 59.992188 51.386719 53.25 59.09375 C 46.652344 66.628906 40.460938 68.746094 40 68.902344 C 39.539063 68.746094 33.347656 66.628906 26.75 59.09375 C 20.007813 51.386719 13.234375 38.148438 13.035156 15.953125 C 27.917969 15.710938 38.851563 10.648438 40 10.09375 Z M 38.125 15.253906 L 37.777344 15.316406 L 37.683594 15.355469 L 37.074219 16.011719 L 37.238281 16.890625 L 38.042969 17.292969 L 38.390625 17.226563 L 38.484375 17.191406 L 39.089844 16.53125 L 38.925781 15.652344 Z M 42.203125 15.328125 L 41.3125 15.433594 L 40.863281 16.210938 L 41.21875 17.03125 L 41.523438 17.207031 L 41.617188 17.242188 L 42.507813 17.136719 L 42.953125 16.359375 L 42.601563 15.535156 L 42.296875 15.359375 Z M 34.3125 16.578125 L 33.964844 16.621094 L 33.871094 16.648438 L 33.21875 17.265625 L 33.324219 18.15625 L 34.097656 18.605469 L 34.449219 18.5625 L 34.546875 18.535156 L 35.195313 17.917969 L 35.089844 17.027344 Z M 46.023438 16.621094 L 45.140625 16.78125 L 44.742188 17.582031 L 45.144531 18.382813 L 45.457031 18.539063 L 45.554688 18.566406 L 46.4375 18.40625 L 46.839844 17.609375 L 46.4375 16.808594 L 46.121094 16.648438 Z M 30.4375 17.691406 L 30.082031 17.707031 L 29.984375 17.734375 L 29.296875 18.308594 L 29.34375 19.203125 L 30.09375 19.699219 L 30.441406 19.679688 L 30.542969 19.65625 L 31.230469 19.082031 L 31.179688 18.1875 Z M 49.9375 17.707031 L 49.0625 17.894531 L 48.6875 18.710938 L 49.117188 19.496094 L 49.4375 19.640625 L 49.535156 19.667969 L 50.410156 19.480469 L 50.78125 18.664063 L 50.355469 17.878906 L 50.03125 17.734375 Z M 26.46875 18.578125 L 26.121094 18.585938 L 26.019531 18.605469 L 25.3125 19.15625 L 25.328125 20.050781 L 26.058594 20.574219 L 26.410156 20.566406 L 26.511719 20.546875 L 27.21875 20 L 27.199219 19.101563 Z M 53.859375 18.589844 L 53 18.84375 L 52.6875 19.683594 L 53.171875 20.4375 L 53.503906 20.558594 L 53.605469 20.578125 L 54.464844 20.324219 L 54.773438 19.484375 L 54.285156 18.730469 L 53.957031 18.609375 Z M 57.855469 19.253906 L 57.007813 19.546875 L 56.734375 20.398438 L 57.25 21.128906 L 57.585938 21.234375 L 57.6875 21.25 L 58.53125 20.960938 L 58.808594 20.109375 L 58.289063 19.375 L 57.953125 19.269531 Z M 22.121094 19.273438 L 22.019531 19.289063 L 21.296875 19.8125 L 21.277344 20.707031 L 21.984375 21.257813 L 22.339844 21.265625 L 22.4375 21.25 L 23.164063 20.722656 L 23.179688 19.828125 L 22.472656 19.28125 Z M 18.21875 19.730469 C 18.195313 19.726563 18.171875 19.730469 18.152344 19.730469 C 18.09375 19.734375 18.078125 19.734375 18.101563 19.734375 L 17.160156 19.792969 L 17.160156 20.777344 C 17.152344 21.191406 17.402344 21.566406 17.789063 21.71875 C 18.171875 21.871094 18.613281 21.773438 18.894531 21.46875 C 19.199219 21.191406 19.304688 20.753906 19.15625 20.367188 C 19.003906 19.980469 18.632813 19.726563 18.21875 19.730469 Z M 61.75 19.730469 C 61.335938 19.738281 60.96875 20.007813 60.832031 20.398438 C 60.695313 20.792969 60.816406 21.226563 61.136719 21.496094 C 61.136719 21.496094 61.136719 21.496094 61.140625 21.5 C 61.425781 21.785156 61.859375 21.867188 62.234375 21.707031 C 62.605469 21.546875 62.847656 21.179688 62.84375 20.773438 L 62.84375 19.792969 L 61.902344 19.734375 C 61.925781 19.734375 61.90625 19.734375 61.847656 19.730469 C 61.816406 19.726563 61.785156 19.726563 61.75 19.730469 Z M 61.503906 23.871094 L 60.800781 24.425781 L 60.710938 24.769531 L 60.703125 24.871094 L 61.035156 25.703125 L 61.902344 25.933594 L 62.605469 25.375 L 62.695313 25.035156 L 62.703125 24.933594 L 62.371094 24.101563 Z M 17.953125 23.953125 L 17.328125 24.589844 L 17.28125 24.9375 L 17.28125 25.011719 L 17.285156 25.074219 L 17.746094 25.84375 L 18.636719 25.9375 L 19.246094 25.277344 L 19.28125 24.925781 L 19.28125 24.894531 L 19.277344 24.863281 L 19.277344 24.855469 L 18.84375 24.070313 Z M 52.023438 27.78125 L 37.5 41.78125 L 30.140625 34.234375 L 27.988281 36.328125 L 37.433594 46.015625 L 54.105469 29.9375 Z M 61.144531 28.019531 L 60.40625 28.527344 L 60.292969 28.859375 L 60.277344 28.960938 L 60.558594 29.8125 L 61.40625 30.101563 L 62.140625 29.59375 L 62.253906 29.261719 L 62.269531 29.15625 L 61.996094 28.308594 Z M 18.242188 28.171875 L 17.675781 28.863281 L 17.660156 29.21875 L 17.671875 29.320313 L 18.175781 30.0625 L 19.074219 30.097656 L 19.640625 29.40625 L 19.65625 29.054688 L 19.640625 28.953125 L 19.136719 28.210938 Z M 60.484375 32.125 L 59.714844 32.585938 L 59.578125 32.910156 L 59.558594 33.011719 L 59.777344 33.878906 L 60.605469 34.222656 L 61.375 33.765625 L 61.511719 33.4375 L 61.53125 33.339844 L 61.3125 32.46875 Z M 19.734375 32.335938 L 18.839844 32.355469 L 18.316406 33.078125 L 18.324219 33.433594 L 18.34375 33.53125 L 18.890625 34.242188 L 19.789063 34.222656 L 20.3125 33.496094 L 20.304688 33.144531 L 20.285156 33.042969 Z M 59.515625 36.171875 L 58.714844 36.578125 L 58.558594 36.894531 L 58.53125 36.996094 L 58.691406 37.875 L 59.496094 38.273438 L 60.296875 37.867188 L 60.453125 37.550781 L 60.480469 37.453125 L 60.316406 36.574219 Z M 20.625 36.40625 L 19.734375 36.480469 L 19.257813 37.238281 L 19.285156 37.589844 L 19.3125 37.6875 L 19.90625 38.359375 L 20.800781 38.285156 L 21.277344 37.527344 L 21.246094 37.175781 L 21.21875 37.078125 Z M 58.253906 40.132813 L 57.421875 40.457031 L 57.234375 40.757813 L 57.199219 40.851563 L 57.269531 41.746094 L 58.03125 42.21875 L 58.867188 41.890625 L 59.054688 41.59375 L 59.09375 41.5 L 59.015625 40.605469 Z M 21.808594 40.378906 L 20.925781 40.539063 L 20.527344 41.34375 L 20.589844 41.6875 L 20.625 41.785156 L 21.28125 42.394531 L 22.164063 42.234375 L 22.5625 41.433594 L 22.5 41.085938 L 22.464844 40.988281 Z M 56.625 43.96875 L 55.777344 44.25 L 55.574219 44.542969 L 55.53125 44.636719 L 55.566406 45.53125 L 56.300781 46.039063 L 57.152344 45.753906 L 57.351563 45.464844 L 57.394531 45.371094 L 57.359375 44.472656 Z M 23.363281 44.234375 L 22.496094 44.464844 L 22.160156 45.296875 L 22.25 45.636719 L 22.296875 45.730469 L 23 46.285156 L 23.863281 46.054688 L 24.199219 45.222656 L 24.109375 44.882813 L 24.0625 44.792969 Z M 54.738281 47.65625 L 53.859375 47.839844 L 53.625 48.101563 L 53.574219 48.1875 L 53.5 49.082031 L 54.167969 49.675781 L 55.046875 49.496094 L 55.28125 49.230469 L 55.332031 49.144531 L 55.40625 48.25 Z M 25.1875 47.941406 L 24.355469 48.277344 L 24.125 49.144531 L 24.261719 49.46875 L 24.3125 49.558594 L 25.082031 50.019531 L 25.910156 49.6875 L 26.140625 48.816406 L 26.003906 48.492188 L 25.953125 48.40625 Z M 52.5 51.167969 L 51.613281 51.296875 L 51.367188 51.546875 L 51.308594 51.632813 L 51.183594 52.519531 L 51.816406 53.152344 L 52.703125 53.019531 L 52.953125 52.769531 L 53.011719 52.6875 L 53.136719 51.800781 Z M 27.453125 51.4375 L 26.644531 51.824219 L 26.46875 52.703125 L 26.625 53.019531 L 26.683594 53.105469 L 27.476563 53.519531 L 28.28125 53.136719 L 28.457031 52.253906 L 28.308594 51.9375 L 28.246094 51.855469 Z M 50 54.480469 L 49.105469 54.515625 L 48.832031 54.734375 L 48.765625 54.8125 L 48.546875 55.679688 L 49.109375 56.375 L 50.003906 56.34375 L 50.277344 56.121094 L 50.34375 56.042969 L 50.5625 55.171875 Z M 29.996094 54.695313 L 29.238281 55.171875 L 29.167969 56.066406 L 29.355469 56.363281 L 29.421875 56.4375 L 30.261719 56.761719 L 31.015625 56.285156 L 31.089844 55.390625 L 30.902344 55.09375 L 30.832031 55.015625 Z M 46.316406 57.5 L 46.019531 57.691406 L 45.949219 57.761719 L 45.640625 58.605469 L 46.132813 59.351563 L 47.027344 59.40625 L 47.324219 59.214844 L 47.394531 59.144531 L 47.703125 58.300781 L 47.210938 57.550781 Z M 32.878906 57.667969 L 32.171875 58.222656 L 32.199219 59.121094 L 32.414063 59.394531 L 32.492188 59.464844 L 33.359375 59.695313 L 34.0625 59.140625 L 34.039063 58.246094 L 33.820313 57.96875 L 33.746094 57.902344 Z M 43.242188 60.191406 L 42.929688 60.355469 L 42.847656 60.417969 L 42.464844 61.226563 L 42.878906 62.019531 L 43.765625 62.160156 L 44.078125 62 L 44.15625 61.9375 L 44.542969 61.125 L 44.125 60.332031 Z M 36.074219 60.308594 L 35.425781 60.925781 L 35.535156 61.816406 L 35.777344 62.074219 L 35.859375 62.132813 L 36.746094 62.28125 L 37.390625 61.660156 L 37.285156 60.773438 L 37.042969 60.515625 L 36.957031 60.457031 Z M 39.921875 62.445313 C 39.457031 62.453125 39.0625 62.78125 38.964844 63.230469 C 38.867188 63.683594 39.089844 64.144531 39.503906 64.34375 C 39.503906 64.34375 39.515625 64.351563 39.546875 64.367188 L 39.996094 64.589844 L 40.484375 64.34375 C 40.90625 64.140625 41.128906 63.667969 41.015625 63.210938 C 40.90625 62.753906 40.488281 62.433594 40.019531 62.449219 C 40.015625 62.445313 40.015625 62.445313 40.011719 62.449219 C 39.980469 62.445313 39.949219 62.445313 39.921875 62.445313 Z " fill="#ffffff"/></g></svg>
